<?xml version="1.0" standalone="no"?><!DOCTYPE svg PUBLIC "-//W3C//DTD SVG 1.1//EN" "http://www.w3.org/Graphics/SVG/1.1/DTD/svg11.dtd"><svg class="icon" width="200px" height="200.00px" viewBox="0 0 1024 1024" version="1.1" xmlns="http://www.w3.org/2000/svg"><path d="M1024 960.032a64 64 0 0 1-64 64H64a64 64 0 0 1-64-64v-896a64 64 0 0 1 64-64h896a64 64 0 0 1 64 64v896z" fill="#434854" /><path d="M0 832.032h1024v32H0zM0 608.032h1024v32H0zM0 384.032h1024v32H0zM0 160.032h1024v32H0z" fill="#ffffff" /><path d="M864 288.032a32 32 0 0 0-32-32h-128a32 32 0 0 0-32 32v736h192v-736z" fill="#3aad73" /><path d="M608 480.032a32 32 0 0 0-32-32h-128a32 32 0 0 0-32 32v544h192v-544z" fill="#eaca44" /><path d="M352 672.032a32 32 0 0 0-32-32H192a32 32 0 0 0-32 32v352h192v-352z" fill="#ef4d4d" /><path d="M160 960.032h192v64H160zM672 960.032h192v64h-192z"  /><path d="M416 960.032h192v64h-192z"  /></svg>